<?xml version="1.0" standalone="no"?>
<!DOCTYPE svg PUBLIC "-//W3C//DTD SVG 20010904//EN"
 "http://www.w3.org/TR/2001/REC-SVG-20010904/DTD/svg10.dtd">
<svg version="1.0" xmlns="http://www.w3.org/2000/svg"
 width="1978.000000pt" height="1978.000000pt" viewBox="0 0 1978.000000 1978.000000"
 preserveAspectRatio="xMidYMid meet">
<metadata>
Created by potrace 1.14, written by Peter Selinger 2001-2017
</metadata>
<g transform="translate(0.000000,1978.000000) scale(0.100000,-0.100000)"
fill="#000000" stroke="none">
<path d="M9508 19775 c-2 -2 -64 -6 -138 -9 -74 -4 -155 -9 -180 -11 -25 -2
-81 -6 -125 -10 -130 -11 -266 -24 -305 -30 -14 -2 -52 -6 -85 -10 -33 -3 -71
-8 -85 -10 -14 -3 -45 -7 -70 -10 -38 -5 -104 -15 -325 -51 -51 -8 -188 -34
-230 -44 -22 -5 -56 -12 -75 -15 -28 -5 -191 -41 -270 -60 -117 -28 -158 -38
-176 -41 -58 -11 -494 -140 -664 -197 -298 -100 -632 -226 -790 -298 -25 -12
-60 -27 -77 -35 -18 -8 -50 -21 -70 -30 -91 -39 -384 -182 -542 -265 -703
-365 -1352 -814 -1990 -1374 -155 -136 -496 -468 -621 -605 -18 -19 -58 -63
-89 -96 -31 -34 -85 -94 -121 -134 -36 -41 -74 -84 -85 -96 -11 -12 -31 -37
-45 -54 -14 -18 -32 -40 -41 -49 -15 -16 -154 -187 -214 -265 -16 -22 -48 -62
-70 -90 -22 -28 -47 -61 -55 -73 -8 -12 -55 -76 -104 -143 -355 -487 -717
-1109 -974 -1675 -87 -192 -92 -204 -92 -209 0 -3 -11 -29 -24 -58 -25 -56
-96 -226 -100 -243 -2 -5 -7 -21 -13 -35 -12 -30 -90 -245 -127 -348 -24 -68
-123 -378 -131 -412 -3 -8 -16 -55 -30 -105 -32 -113 -105 -392 -111 -425 -3
-14 -7 -31 -9 -39 -10 -25 -92 -428 -100 -486 -2 -16 -11 -68 -19 -115 -8 -47
-17 -103 -21 -125 -3 -23 -7 -50 -9 -61 -4 -19 -12 -83 -22 -159 -2 -16 -6
-52 -10 -80 -7 -54 -9 -66 -18 -170 -4 -38 -9 -77 -11 -85 -2 -8 -7 -60 -11
-115 -4 -55 -8 -116 -9 -135 -15 -188 -20 -384 -20 -710 1 -338 5 -478 20
-700 6 -89 32 -360 40 -425 2 -16 7 -52 10 -80 3 -27 8 -61 10 -75 2 -14 6
-47 10 -75 5 -44 28 -191 40 -265 7 -40 64 -343 69 -365 2 -11 12 -56 21 -100
10 -44 21 -96 25 -115 5 -19 15 -64 23 -100 8 -36 25 -101 36 -145 12 -44 24
-89 26 -100 3 -11 21 -75 40 -142 20 -67 38 -130 40 -140 7 -35 153 -470 203
-603 48 -129 148 -381 177 -445 7 -16 41 -93 75 -170 69 -156 294 -611 334
-674 14 -22 26 -43 26 -45 0 -16 240 -418 363 -608 121 -187 389 -566 453
-640 10 -13 30 -39 44 -58 13 -19 30 -41 37 -48 7 -8 26 -30 41 -50 15 -21 32
-42 37 -48 6 -6 28 -33 50 -60 69 -83 218 -258 245 -285 14 -15 47 -52 74 -83
144 -165 526 -545 695 -693 25 -21 54 -47 65 -58 12 -11 64 -56 116 -100 52
-44 97 -82 100 -85 42 -46 459 -365 675 -517 184 -129 652 -426 735 -467 8 -4
24 -12 35 -19 29 -17 140 -80 210 -117 85 -46 436 -222 520 -260 39 -18 93
-43 120 -55 248 -113 557 -234 895 -349 85 -30 162 -56 170 -59 22 -7 284 -83
355 -102 76 -21 205 -55 225 -59 8 -2 33 -9 55 -14 22 -6 51 -13 65 -16 14 -3
66 -14 115 -26 90 -20 168 -37 215 -46 14 -3 57 -11 95 -18 95 -19 147 -29
165 -31 8 -1 78 -12 155 -24 140 -23 161 -26 245 -36 25 -3 56 -7 70 -10 14
-2 52 -7 84 -10 33 -3 73 -8 90 -10 17 -2 63 -7 101 -10 39 -3 95 -8 125 -11
391 -35 1231 -40 1535 -9 22 2 72 7 110 10 106 8 178 15 313 30 42 5 77 10
152 20 14 2 48 6 75 10 28 3 93 13 145 21 52 9 110 18 129 20 18 2 90 15 160
29 69 13 137 26 151 29 20 4 315 68 370 81 210 49 557 149 810 234 182 61 470
166 525 191 11 5 92 39 180 75 88 37 193 82 233 101 41 19 76 34 79 34 9 0
492 244 588 297 156 86 186 103 365 211 463 278 866 567 1298 930 41 35 81 69
87 75 6 7 34 31 62 54 61 52 72 62 268 248 245 232 461 458 660 690 42 50 87
101 99 115 23 25 210 258 256 318 14 18 32 42 40 52 161 202 464 654 651 970
66 113 79 135 159 280 72 129 299 583 315 630 1 3 12 28 24 55 130 285 321
779 394 1020 96 317 119 393 122 410 2 6 15 55 30 110 15 55 29 111 32 124 2
14 6 28 8 31 2 4 7 20 10 37 2 17 16 78 30 137 22 92 69 323 81 396 2 14 7 36
10 50 3 14 8 43 10 65 3 22 7 47 10 56 2 9 7 34 9 55 3 20 7 50 10 66 8 46 13
80 20 138 4 30 9 62 10 71 4 18 13 96 29 244 11 98 15 141 22 225 3 47 7 101
9 120 27 267 27 1087 0 1405 -3 33 -10 116 -16 185 -5 69 -12 139 -14 155 -2
17 -7 57 -10 90 -3 33 -8 71 -10 85 -3 14 -7 43 -10 65 -7 64 -13 106 -24 175
-5 36 -13 85 -16 110 -3 25 -8 52 -10 60 -2 8 -7 31 -10 50 -17 107 -77 416
-92 475 -7 28 -22 95 -29 125 -34 163 -183 677 -263 910 -88 260 -224 606
-321 820 -21 47 -48 108 -60 135 -66 150 -273 551 -366 712 -30 51 -54 94 -54
97 0 2 -23 42 -51 88 -29 46 -60 97 -69 114 -58 101 -350 540 -411 619 -5 5
-66 87 -135 180 -105 141 -265 344 -309 391 -5 6 -30 35 -54 64 -25 29 -50 58
-55 64 -6 6 -24 27 -40 46 -144 175 -538 577 -776 790 -52 47 -97 88 -100 91
-15 17 -311 266 -370 312 -9 7 -36 29 -61 49 -26 20 -107 82 -180 137 -74 56
-138 105 -144 109 -37 30 -400 276 -501 339 -779 489 -1551 845 -2392 1104
-191 58 -241 73 -458 129 -142 38 -513 120 -649 145 -50 9 -159 27 -180 30
-11 2 -63 10 -116 19 -53 9 -119 18 -145 21 -27 3 -60 8 -74 10 -43 7 -103 14
-160 20 -30 3 -66 8 -80 10 -14 2 -63 7 -110 11 -47 3 -98 8 -115 10 -16 1
-75 6 -130 9 -55 4 -122 9 -150 11 -57 6 -922 14 -927 9z"/>
</g>
</svg>
